<svg width="12" height="12" viewBox="0 0 12 12" fill="none" xmlns="http://www.w3.org/2000/svg">
<path d="M6.00006 4.17755C4.99655 4.17755 4.1776 4.9965 4.1776 6.00001C4.1776 7.00353 4.99655 7.82247 6.00006 7.82247C7.00358 7.82247 7.82253 7.00353 7.82253 6.00001C7.82253 4.9965 7.00358 4.17755 6.00006 4.17755ZM11.4661 6.00001C11.4661 5.24532 11.4729 4.49747 11.4305 3.74415C11.3882 2.86915 11.1885 2.09259 10.5487 1.45275C9.90749 0.811536 9.13229 0.613294 8.25729 0.570911C7.5026 0.528529 6.75475 0.535365 6.00143 0.535365C5.24674 0.535365 4.49889 0.528529 3.74557 0.570911C2.87057 0.613294 2.09401 0.812903 1.45417 1.45275C0.812955 2.09396 0.614713 2.86915 0.57233 3.74415C0.529948 4.49884 0.536784 5.24669 0.536784 6.00001C0.536784 6.75333 0.529948 7.50255 0.57233 8.25587C0.614713 9.13087 0.814323 9.90743 1.45417 10.5473C2.09538 11.1885 2.87057 11.3867 3.74557 11.4291C4.50026 11.4715 5.24811 11.4647 6.00143 11.4647C6.75612 11.4647 7.50397 11.4715 8.25729 11.4291C9.13229 11.3867 9.90886 11.1871 10.5487 10.5473C11.1899 9.90606 11.3882 9.13087 11.4305 8.25587C11.4743 7.50255 11.4661 6.7547 11.4661 6.00001ZM6.00006 8.80411C4.44831 8.80411 3.19596 7.55177 3.19596 6.00001C3.19596 4.44825 4.44831 3.19591 6.00006 3.19591C7.55182 3.19591 8.80417 4.44825 8.80417 6.00001C8.80417 7.55177 7.55182 8.80411 6.00006 8.80411ZM8.91901 3.73595C8.55671 3.73595 8.26413 3.44337 8.26413 3.08107C8.26413 2.71876 8.55671 2.42618 8.91901 2.42618C9.28132 2.42618 9.57389 2.71876 9.57389 3.08107C9.574 3.1671 9.55714 3.2523 9.52426 3.33181C9.49139 3.41131 9.44316 3.48355 9.38232 3.54438C9.32149 3.60521 9.24925 3.65345 9.16975 3.68632C9.09025 3.71919 9.00504 3.73606 8.91901 3.73595Z" fill="white"/>
</svg>
