<svg width="10" height="10" viewBox="0 0 10 10" fill="none" xmlns="http://www.w3.org/2000/svg">
<path fill-rule="evenodd" clip-rule="evenodd" d="M5 9.99998C6.32608 9.99998 7.59785 9.47319 8.53553 8.53551C9.47322 7.59783 10 6.32606 10 4.99998C10 3.67389 9.47322 2.40213 8.53553 1.46444C7.59785 0.526761 6.32608 -2.28882e-05 5 -2.28882e-05C3.67392 -2.28882e-05 2.40215 0.526761 1.46447 1.46444C0.526784 2.40213 0 3.67389 0 4.99998C0 6.32606 0.526784 7.59783 1.46447 8.53551C2.40215 9.47319 3.67392 9.99998 5 9.99998V9.99998ZM5.625 2.49998C5.625 2.33422 5.55915 2.17525 5.44194 2.05804C5.32473 1.94083 5.16576 1.87498 5 1.87498C4.83424 1.87498 4.67527 1.94083 4.55806 2.05804C4.44085 2.17525 4.375 2.33422 4.375 2.49998V4.99998C4.37504 5.16572 4.44091 5.32467 4.55813 5.44185L6.32563 7.20998C6.38369 7.26805 6.45263 7.31411 6.5285 7.34554C6.60437 7.37696 6.68569 7.39314 6.76781 7.39314C6.84993 7.39314 6.93125 7.37696 7.00712 7.34554C7.08299 7.31411 7.15193 7.26805 7.21 7.20998C7.26807 7.15191 7.31413 7.08297 7.34556 7.0071C7.37699 6.93123 7.39316 6.84991 7.39316 6.76779C7.39316 6.68567 7.37699 6.60435 7.34556 6.52848C7.31413 6.45261 7.26807 6.38367 7.21 6.3256L5.625 4.74123V2.49998Z" fill="white"/>
</svg>
