<svg width="10" height="13" viewBox="0 0 10 13" fill="none" xmlns="http://www.w3.org/2000/svg">
<path fill-rule="evenodd" clip-rule="evenodd" d="M1.53496 1.835C2.45394 0.916025 3.70034 0.39975 4.99996 0.39975C6.29959 0.39975 7.54599 0.916025 8.46496 1.835C9.38394 2.75397 9.90021 4.00037 9.90021 5.3C9.90021 6.59963 9.38394 7.84602 8.46496 8.765L4.99996 12.23L1.53496 8.765C1.0799 8.30999 0.718927 7.76979 0.472648 7.17526C0.226368 6.58074 0.0996094 5.94352 0.0996094 5.3C0.0996094 4.65648 0.226368 4.01926 0.472648 3.42474C0.718927 2.83021 1.0799 2.29001 1.53496 1.835ZM4.99996 6.7C5.37127 6.7 5.72736 6.5525 5.98991 6.28995C6.25246 6.0274 6.39996 5.6713 6.39996 5.3C6.39996 4.9287 6.25246 4.5726 5.98991 4.31005C5.72736 4.0475 5.37127 3.9 4.99996 3.9C4.62866 3.9 4.27257 4.0475 4.01001 4.31005C3.74746 4.5726 3.59996 4.9287 3.59996 5.3C3.59996 5.6713 3.74746 6.0274 4.01001 6.28995C4.27257 6.5525 4.62866 6.7 4.99996 6.7Z" fill="white"/>
</svg>
